<?xml version="1.0" encoding="utf-8"?>
<!-- Generator: Adobe Illustrator 24.1.0, SVG Export Plug-In . SVG Version: 6.00 Build 0)  -->
<svg version="1.1" id="Layer_1" xmlns="http://www.w3.org/2000/svg" xmlns:xlink="http://www.w3.org/1999/xlink" x="0px" y="0px"
	 viewBox="0 0 154.36 35.42" style="enable-background:new 0 0 154.36 35.42;" xml:space="preserve">
<style type="text/css">
	.st0{fill:#ffffff;}
	.st1{fill:#2e73e6;}
</style>
<g>
	<g>
		<path class="st0" d="M56.08,21.84h-7l-1.3,3.22H43l7.3-16.55h4.61l7.33,16.55h-4.87L56.08,21.84z M54.71,18.39l-2.13-5.3
			l-2.13,5.3H54.71z"/>
		<path class="st0" d="M68.87,23.56l1.54-3.45c1.47,0.97,3.55,1.63,5.46,1.63c1.94,0,2.69-0.54,2.69-1.35
			c0-2.62-9.41-0.71-9.41-6.86c0-2.95,2.41-5.37,7.33-5.37c2.15,0,4.37,0.5,6,1.44l-1.44,3.47c-1.58-0.85-3.14-1.28-4.59-1.28
			c-1.96,0-2.67,0.66-2.67,1.49c0,2.53,9.38,0.64,9.38,6.74c0,2.88-2.41,5.34-7.33,5.34C73.12,25.38,70.43,24.65,68.87,23.56z"/>
		<path class="st0" d="M99.16,19.05l-1.75,1.87v4.14h-4.63V8.51h4.63v6.88l6.41-6.88h5.15l-6.76,7.33l7.12,9.22h-5.44L99.16,19.05z"
			/>
		<path class="st0" d="M133.72,26.45c-1.02,1.23-2.41,1.89-4.02,1.89c-1.94,0-3.55-0.87-5.72-3.14c-4.85-0.14-8.39-3.69-8.39-8.42
			c0-4.82,3.69-8.42,8.7-8.42c4.96,0,8.68,3.57,8.68,8.42c0,4.23-2.81,7.47-6.83,8.25c1.25,1.32,2.41,1.91,3.59,1.91
			c1.25,0,2.27-0.5,3.14-1.51L133.72,26.45z M124.29,23.63c3.97,0,6.93-2.93,6.93-6.86s-2.95-6.86-6.93-6.86
			c-4,0-6.97,2.93-6.97,6.86S120.29,23.63,124.29,23.63z"/>
		<path class="st0" d="M143.35,8.51h1.75v15.04h9.27v1.51h-11.02V8.51z"/>
	</g>
	<g>
		<path class="st1" d="M34.57,33.64H25.6v-4.92h6.1L18.92,6.57L6.14,28.72h5.76v4.92H3.27c-2.51,0-4.08-2.72-2.83-4.9L16.09,1.63
			c1.26-2.18,4.4-2.18,5.65,0L37.4,28.74C38.65,30.92,37.08,33.64,34.57,33.64z"/>
		<path class="st1" d="M18.92,35.42c-2.4,0-4.36-1.95-4.36-4.36s1.95-4.36,4.36-4.36c2.4,0,4.36,1.95,4.36,4.36
			S21.32,35.42,18.92,35.42z"/>
	</g>
</g>
</svg>
